# MagicaVoxel @ Ephtracy

# group
o 

# material
mtllib water_can.mtl
usemtl palette

# normals
vn -1 0 0
vn 1 0 0
vn 0 0 1
vn 0 0 -1
vn 0 -1 0
vn 0 1 0

# texcoords
vt 0.880859 0.5
vt 0.947266 0.5
vt 0.951172 0.5

# verts
v -0.3 0 0.1
v -0.3 0 -0.1
v -0.3 0.6 0.1
v -0.3 0.6 -0.1
v -0.2 0 0.2
v -0.2 0 0.1
v -0.2 0 -0.1
v -0.2 0 -0.2
v -0.2 0.5 0.8
v -0.2 0.5 0.6
v -0.2 0.6 0.2
v -0.2 0.6 0.1
v -0.2 0.6 -0.1
v -0.2 0.6 -0.2
v -0.2 0.7 0.8
v -0.2 0.7 0.6
v -0.1 0 -0.2
v -0.1 0 -0.3
v -0.1 0.4 0.8
v -0.1 0.4 0.6
v -0.1 0.4 0.5
v -0.1 0.4 0.2
v -0.1 0.5 0.8
v -0.1 0.5 0.6
v -0.1 0.5 0.5
v -0.1 0.5 0.4
v -0.1 0.5 0.2
v -0.1 0.6 0.2
v -0.1 0.6 0.1
v -0.1 0.6 -0.1
v -0.1 0.6 -0.2
v -0.1 0.6 -0.3
v -0.1 0.7 0.8
v -0.1 0.7 0.6
v -0.1 0.7 0.4
v -0.1 0.7 0.1
v -0.1 0.7 -0.1
v -0.1 0.8 0.8
v -0.1 0.8 0.6
v -0.1 0.8 0.2
v -0.1 0.8 -0.2
v 0.1 0.1 -0.1
v 0.1 0.1 -0.2
v 0.1 0.5 0.8
v 0.1 0.5 0.7
v 0.1 0.6 -0.1
v 0.1 0.6 -0.2
v 0.1 0.7 0.8
v 0.1 0.7 0.7
v 0.2 0.1 0.1
v 0.2 0.1 -0.1
v 0.2 0.6 0.1
v 0.2 0.6 -0.1
v -0.2 0.1 0.1
v -0.2 0.1 -0.1
v -0.2 0.6 0.1
v -0.2 0.6 -0.1
v -0.1 0.1 -0.1
v -0.1 0.1 -0.2
v -0.1 0.3 -0.1
v -0.1 0.3 -0.2
v -0.1 0.5 0.8
v -0.1 0.5 0.7
v -0.1 0.7 0.8
v -0.1 0.7 0.7
v 0 0.3 -0.1
v 0 0.3 -0.2
v 0 0.6 0.2
v 0 0.6 0.1
v 0 0.6 -0.2
v 0 0.7 0.1
v 0 0.7 -0.1
v 0 0.8 0.2
v 0 0.8 -0.2
v 0.1 0 -0.2
v 0.1 0 -0.3
v 0.1 0.4 0.8
v 0.1 0.4 0.6
v 0.1 0.4 0.5
v 0.1 0.4 0.2
v 0.1 0.5 0.8
v 0.1 0.5 0.6
v 0.1 0.5 0.5
v 0.1 0.5 0.4
v 0.1 0.5 0.2
v 0.1 0.6 -0.2
v 0.1 0.6 -0.3
v 0.1 0.7 0.8
v 0.1 0.7 0.6
v 0.1 0.7 0.4
v 0.1 0.8 0.8
v 0.1 0.8 0.6
v 0.2 0 0.2
v 0.2 0 0.1
v 0.2 0 -0.1
v 0.2 0 -0.2
v 0.2 0.5 0.8
v 0.2 0.5 0.6
v 0.2 0.6 0.2
v 0.2 0.6 0.1
v 0.2 0.6 -0.1
v 0.2 0.6 -0.2
v 0.2 0.7 0.8
v 0.2 0.7 0.6
v 0.3 0 0.1
v 0.3 0 -0.1
v 0.3 0.6 0.1
v 0.3 0.6 -0.1
v -0.2 0.5 0.8
v -0.2 0.7 0.8
v -0.1 0.4 0.8
v -0.1 0.5 0.8
v -0.1 0.7 0.8
v -0.1 0.8 0.8
v 0.1 0.4 0.8
v 0.1 0.5 0.8
v 0.1 0.7 0.8
v 0.1 0.8 0.8
v 0.2 0.5 0.8
v 0.2 0.7 0.8
v -0.1 0.5 0.7
v -0.1 0.7 0.7
v 0.1 0.5 0.7
v 0.1 0.7 0.7
v -0.1 0.4 0.5
v -0.1 0.5 0.5
v 0.1 0.4 0.5
v 0.1 0.5 0.5
v -0.2 0 0.2
v -0.2 0.6 0.2
v -0.1 0.4 0.2
v -0.1 0.5 0.2
v -0.1 0.6 0.2
v -0.1 0.8 0.2
v 0 0.6 0.2
v 0 0.8 0.2
v 0.1 0.4 0.2
v 0.1 0.5 0.2
v 0.2 0 0.2
v 0.2 0.6 0.2
v -0.3 0 0.1
v -0.3 0.6 0.1
v -0.2 0 0.1
v -0.2 0.6 0.1
v 0.2 0 0.1
v 0.2 0.6 0.1
v 0.3 0 0.1
v 0.3 0.6 0.1
v -0.2 0.1 -0.1
v -0.2 0.6 -0.1
v -0.1 0.1 -0.1
v -0.1 0.3 -0.1
v -0.1 0.6 -0.1
v -0.1 0.7 -0.1
v 0 0.3 -0.1
v 0 0.7 -0.1
v 0.1 0.1 -0.1
v 0.1 0.6 -0.1
v 0.2 0.1 -0.1
v 0.2 0.6 -0.1
v -0.1 0.1 -0.2
v -0.1 0.3 -0.2
v 0 0.3 -0.2
v 0 0.6 -0.2
v 0.1 0.1 -0.2
v 0.1 0.6 -0.2
v -0.2 0.5 0.6
v -0.2 0.7 0.6
v -0.1 0.4 0.6
v -0.1 0.5 0.6
v -0.1 0.7 0.6
v -0.1 0.8 0.6
v 0.1 0.4 0.6
v 0.1 0.5 0.6
v 0.1 0.7 0.6
v 0.1 0.8 0.6
v 0.2 0.5 0.6
v 0.2 0.7 0.6
v -0.1 0.5 0.4
v -0.1 0.7 0.4
v 0.1 0.5 0.4
v 0.1 0.7 0.4
v -0.2 0.1 0.1
v -0.2 0.6 0.1
v -0.1 0.6 0.1
v -0.1 0.7 0.1
v 0 0.6 0.1
v 0 0.7 0.1
v 0.2 0.1 0.1
v 0.2 0.6 0.1
v -0.3 0 -0.1
v -0.3 0.6 -0.1
v -0.2 0 -0.1
v -0.2 0.6 -0.1
v 0.2 0 -0.1
v 0.2 0.6 -0.1
v 0.3 0 -0.1
v 0.3 0.6 -0.1
v -0.2 0 -0.2
v -0.2 0.6 -0.2
v -0.1 0 -0.2
v -0.1 0.6 -0.2
v -0.1 0.8 -0.2
v 0 0.6 -0.2
v 0 0.8 -0.2
v 0.1 0 -0.2
v 0.1 0.6 -0.2
v 0.2 0 -0.2
v 0.2 0.6 -0.2
v -0.1 0 -0.3
v -0.1 0.6 -0.3
v 0.1 0 -0.3
v 0.1 0.6 -0.3
v -0.2 0 0.2
v 0.2 0 0.2
v -0.3 0 0.1
v -0.2 0 0.1
v 0.2 0 0.1
v 0.3 0 0.1
v -0.3 0 -0.1
v -0.2 0 -0.1
v 0.2 0 -0.1
v 0.3 0 -0.1
v -0.2 0 -0.2
v -0.1 0 -0.2
v 0.1 0 -0.2
v 0.2 0 -0.2
v -0.1 0 -0.3
v 0.1 0 -0.3
v -0.1 0.3 -0.1
v 0 0.3 -0.1
v -0.1 0.3 -0.2
v 0 0.3 -0.2
v -0.1 0.4 0.8
v 0.1 0.4 0.8
v -0.1 0.4 0.6
v 0.1 0.4 0.6
v -0.1 0.4 0.5
v 0.1 0.4 0.5
v -0.1 0.4 0.2
v 0.1 0.4 0.2
v -0.2 0.5 0.8
v -0.1 0.5 0.8
v 0.1 0.5 0.8
v 0.2 0.5 0.8
v -0.2 0.5 0.6
v -0.1 0.5 0.6
v 0.1 0.5 0.6
v 0.2 0.5 0.6
v -0.1 0.5 0.5
v 0.1 0.5 0.5
v -0.1 0.7 0.8
v 0.1 0.7 0.8
v -0.1 0.7 0.7
v 0.1 0.7 0.7
v -0.1 0.7 0.1
v 0 0.7 0.1
v -0.1 0.7 -0.1
v 0 0.7 -0.1
v -0.2 0.1 0.1
v 0.2 0.1 0.1
v -0.2 0.1 -0.1
v -0.1 0.1 -0.1
v 0.1 0.1 -0.1
v 0.2 0.1 -0.1
v -0.1 0.1 -0.2
v 0.1 0.1 -0.2
v -0.1 0.5 0.8
v 0.1 0.5 0.8
v -0.1 0.5 0.7
v 0.1 0.5 0.7
v -0.1 0.5 0.4
v 0.1 0.5 0.4
v -0.1 0.5 0.2
v 0.1 0.5 0.2
v -0.2 0.6 0.2
v -0.1 0.6 0.2
v 0 0.6 0.2
v 0.2 0.6 0.2
v -0.3 0.6 0.1
v -0.2 0.6 0.1
v -0.1 0.6 0.1
v 0 0.6 0.1
v 0.2 0.6 0.1
v 0.3 0.6 0.1
v -0.3 0.6 -0.1
v -0.2 0.6 -0.1
v -0.1 0.6 -0.1
v 0.1 0.6 -0.1
v 0.2 0.6 -0.1
v 0.3 0.6 -0.1
v -0.2 0.6 -0.2
v -0.1 0.6 -0.2
v 0 0.6 -0.2
v 0.1 0.6 -0.2
v 0.2 0.6 -0.2
v -0.1 0.6 -0.3
v 0.1 0.6 -0.3
v -0.2 0.7 0.8
v -0.1 0.7 0.8
v 0.1 0.7 0.8
v 0.2 0.7 0.8
v -0.2 0.7 0.6
v -0.1 0.7 0.6
v 0.1 0.7 0.6
v 0.2 0.7 0.6
v -0.1 0.7 0.4
v 0.1 0.7 0.4
v -0.1 0.8 0.8
v 0.1 0.8 0.8
v -0.1 0.8 0.6
v 0.1 0.8 0.6
v -0.1 0.8 0.2
v 0 0.8 0.2
v -0.1 0.8 -0.2
v 0 0.8 -0.2

# faces
f 3/1/1 2/1/1 1/1/1
f 4/1/1 2/1/1 3/1/1
f 11/1/1 6/1/1 5/1/1
f 12/1/1 6/1/1 11/1/1
f 13/1/1 8/1/1 7/1/1
f 14/1/1 8/1/1 13/1/1
f 15/3/1 10/3/1 9/3/1
f 16/3/1 10/3/1 15/3/1
f 23/3/1 20/3/1 19/3/1
f 24/3/1 20/3/1 23/3/1
f 25/1/1 22/1/1 21/1/1
f 26/1/1 22/1/1 25/1/1
f 27/1/1 22/1/1 26/1/1
f 31/1/1 18/1/1 17/1/1
f 32/1/1 18/1/1 31/1/1
f 34/1/1 26/1/1 25/1/1
f 34/1/1 25/1/1 24/1/1
f 35/1/1 26/1/1 34/1/1
f 36/1/1 29/1/1 28/1/1
f 37/1/1 31/1/1 30/1/1
f 38/3/1 34/3/1 33/3/1
f 39/3/1 34/3/1 38/3/1
f 40/1/1 37/1/1 36/1/1
f 40/1/1 36/1/1 28/1/1
f 41/1/1 31/1/1 37/1/1
f 41/1/1 37/1/1 40/1/1
f 46/1/1 43/1/1 42/1/1
f 47/1/1 43/1/1 46/1/1
f 48/3/1 45/3/1 44/3/1
f 49/3/1 45/3/1 48/3/1
f 52/1/1 51/1/1 50/1/1
f 53/1/1 51/1/1 52/1/1
f 54/1/2 55/1/2 56/1/2
f 56/1/2 55/1/2 57/1/2
f 58/1/2 59/1/2 60/1/2
f 60/1/2 59/1/2 61/1/2
f 62/3/2 63/3/2 64/3/2
f 64/3/2 63/3/2 65/3/2
f 66/1/2 67/1/2 70/1/2
f 68/1/2 69/1/2 71/1/2
f 66/1/2 70/1/2 72/1/2
f 68/1/2 71/1/2 73/1/2
f 71/1/2 72/1/2 73/1/2
f 72/1/2 70/1/2 74/1/2
f 73/1/2 72/1/2 74/1/2
f 77/3/2 78/3/2 81/3/2
f 81/3/2 78/3/2 82/3/2
f 79/1/2 80/1/2 83/1/2
f 83/1/2 80/1/2 84/1/2
f 84/1/2 80/1/2 85/1/2
f 75/1/2 76/1/2 86/1/2
f 86/1/2 76/1/2 87/1/2
f 83/1/2 84/1/2 89/1/2
f 82/1/2 83/1/2 89/1/2
f 89/1/2 84/1/2 90/1/2
f 88/3/2 89/3/2 91/3/2
f 91/3/2 89/3/2 92/3/2
f 93/1/2 94/1/2 99/1/2
f 99/1/2 94/1/2 100/1/2
f 95/1/2 96/1/2 101/1/2
f 101/1/2 96/1/2 102/1/2
f 97/3/2 98/3/2 103/3/2
f 103/3/2 98/3/2 104/3/2
f 105/1/2 106/1/2 107/1/2
f 107/1/2 106/1/2 108/1/2
f 112/3/3 110/3/3 109/3/3
f 113/3/3 110/3/3 112/3/3
f 115/3/3 112/3/3 111/3/3
f 116/3/3 112/3/3 115/3/3
f 117/3/3 114/3/3 113/3/3
f 118/3/3 114/3/3 117/3/3
f 119/3/3 117/3/3 116/3/3
f 120/3/3 117/3/3 119/3/3
f 123/2/3 122/2/3 121/2/3
f 124/2/3 122/2/3 123/2/3
f 127/1/3 126/1/3 125/1/3
f 128/1/3 126/1/3 127/1/3
f 131/1/3 130/1/3 129/1/3
f 132/1/3 130/1/3 131/1/3
f 133/1/3 130/1/3 132/1/3
f 135/1/3 134/1/3 133/1/3
f 135/1/3 133/1/3 132/1/3
f 136/1/3 134/1/3 135/1/3
f 137/1/3 131/1/3 129/1/3
f 138/1/3 135/1/3 132/1/3
f 139/1/3 137/1/3 129/1/3
f 139/1/3 138/1/3 137/1/3
f 140/1/3 135/1/3 138/1/3
f 140/1/3 138/1/3 139/1/3
f 143/1/3 142/1/3 141/1/3
f 144/1/3 142/1/3 143/1/3
f 147/1/3 146/1/3 145/1/3
f 148/1/3 146/1/3 147/1/3
f 151/1/3 150/1/3 149/1/3
f 152/1/3 150/1/3 151/1/3
f 153/1/3 150/1/3 152/1/3
f 155/1/3 154/1/3 153/1/3
f 155/1/3 153/1/3 152/1/3
f 156/1/3 154/1/3 155/1/3
f 159/1/3 158/1/3 157/1/3
f 160/1/3 158/1/3 159/1/3
f 163/1/3 162/1/3 161/1/3
f 165/1/3 163/1/3 161/1/3
f 165/1/3 164/1/3 163/1/3
f 166/1/3 164/1/3 165/1/3
f 167/3/4 168/3/4 170/3/4
f 170/3/4 168/3/4 171/3/4
f 169/3/4 170/3/4 173/3/4
f 173/3/4 170/3/4 174/3/4
f 171/3/4 172/3/4 175/3/4
f 175/3/4 172/3/4 176/3/4
f 174/3/4 175/3/4 177/3/4
f 177/3/4 175/3/4 178/3/4
f 179/1/4 180/1/4 181/1/4
f 181/1/4 180/1/4 182/1/4
f 183/1/4 184/1/4 185/1/4
f 183/1/4 185/1/4 187/1/4
f 185/1/4 186/1/4 187/1/4
f 187/1/4 186/1/4 188/1/4
f 183/1/4 187/1/4 189/1/4
f 189/1/4 187/1/4 190/1/4
f 191/1/4 192/1/4 193/1/4
f 193/1/4 192/1/4 194/1/4
f 195/1/4 196/1/4 197/1/4
f 197/1/4 196/1/4 198/1/4
f 199/1/4 200/1/4 201/1/4
f 201/1/4 200/1/4 202/1/4
f 202/1/4 203/1/4 204/1/4
f 204/1/4 203/1/4 205/1/4
f 206/1/4 207/1/4 208/1/4
f 208/1/4 207/1/4 209/1/4
f 210/1/4 211/1/4 212/1/4
f 212/1/4 211/1/4 213/1/4
f 217/1/5 215/1/5 214/1/5
f 218/1/5 215/1/5 217/1/5
f 220/1/5 217/1/5 216/1/5
f 220/1/5 219/1/5 218/1/5
f 220/1/5 218/1/5 217/1/5
f 221/1/5 219/1/5 220/1/5
f 222/1/5 219/1/5 221/1/5
f 223/1/5 219/1/5 222/1/5
f 224/1/5 222/1/5 221/1/5
f 225/1/5 222/1/5 224/1/5
f 226/1/5 222/1/5 225/1/5
f 227/1/5 222/1/5 226/1/5
f 228/1/5 226/1/5 225/1/5
f 229/1/5 226/1/5 228/1/5
f 232/1/5 231/1/5 230/1/5
f 233/1/5 231/1/5 232/1/5
f 236/3/5 235/3/5 234/3/5
f 237/3/5 235/3/5 236/3/5
f 240/1/5 239/1/5 238/1/5
f 241/1/5 239/1/5 240/1/5
f 246/3/5 243/3/5 242/3/5
f 247/3/5 243/3/5 246/3/5
f 248/3/5 245/3/5 244/3/5
f 249/3/5 245/3/5 248/3/5
f 250/1/5 248/1/5 247/1/5
f 251/1/5 248/1/5 250/1/5
f 254/3/5 253/3/5 252/3/5
f 255/3/5 253/3/5 254/3/5
f 258/1/5 257/1/5 256/1/5
f 259/1/5 257/1/5 258/1/5
f 260/1/6 261/1/6 262/1/6
f 262/1/6 261/1/6 263/1/6
f 263/1/6 261/1/6 264/1/6
f 264/1/6 261/1/6 265/1/6
f 263/1/6 264/1/6 266/1/6
f 266/1/6 264/1/6 267/1/6
f 268/3/6 269/3/6 270/3/6
f 270/3/6 269/3/6 271/3/6
f 272/1/6 273/1/6 274/1/6
f 274/1/6 273/1/6 275/1/6
f 276/1/6 277/1/6 281/1/6
f 281/1/6 277/1/6 282/1/6
f 278/1/6 279/1/6 283/1/6
f 283/1/6 279/1/6 284/1/6
f 280/1/6 281/1/6 286/1/6
f 286/1/6 281/1/6 287/1/6
f 284/1/6 285/1/6 290/1/6
f 290/1/6 285/1/6 291/1/6
f 287/1/6 288/1/6 292/1/6
f 292/1/6 288/1/6 293/1/6
f 289/1/6 290/1/6 295/1/6
f 295/1/6 290/1/6 296/1/6
f 293/1/6 294/1/6 297/1/6
f 294/1/6 295/1/6 297/1/6
f 297/1/6 295/1/6 298/1/6
f 299/3/6 300/3/6 303/3/6
f 303/3/6 300/3/6 304/3/6
f 301/3/6 302/3/6 305/3/6
f 305/3/6 302/3/6 306/3/6
f 304/1/6 305/1/6 307/1/6
f 307/1/6 305/1/6 308/1/6
f 309/3/6 310/3/6 311/3/6
f 311/3/6 310/3/6 312/3/6
f 313/1/6 314/1/6 315/1/6
f 315/1/6 314/1/6 316/1/6
