# MagicaVoxel @ Ephtracy

# group
o carrot

# material
mtllib carrot.mtl
usemtl palette

# normals
vn -1 0 0
vn 1 0 0
vn 0 0 1
vn 0 0 -1
vn 0 -1 0
vn 0 1 0

# texcoords
vt 0.939453 0.5
vt 0.943359 0.5

# verts
v -0.5 1.5 0.1
v -0.5 1.5 5.96046e-08
v -0.5 1.6 0.1
v -0.5 1.6 5.96046e-08
v -0.4 1.4 0.1
v -0.4 1.4 5.96046e-08
v -0.4 1.5 0.1
v -0.4 1.5 5.96046e-08
v -0.2 0.5 0.3
v -0.2 0.5 -0.1
v -0.2 0.7 0.4
v -0.2 0.7 0.3
v -0.2 0.9 -0.1
v -0.2 0.9 -0.2
v -0.2 1.3 0.4
v -0.2 1.3 0.2
v -0.2 1.3 -0.1
v -0.2 1.3 -0.2
v -0.2 1.4 0.2
v -0.2 1.4 0.1
v -0.2 1.4 5.96046e-08
v -0.2 1.4 -0.1
v -0.1 0.3 0.4
v -0.1 0.3 -0.1
v -0.1 0.5 0.3
v -0.1 0.5 -0.1
v -0.1 0.7 0.4
v -0.1 0.7 0.3
v -0.1 0.7 -0.1
v -0.1 0.7 -0.2
v -0.1 0.9 -0.1
v -0.1 0.9 -0.2
v -0.1 1.1 0.5
v -0.1 1.1 0.4
v -0.1 1.3 0.5
v -0.1 1.3 0.4
v -0.1 1.5 -0.4
v -0.1 1.5 -0.5
v -0.1 1.6 -0.4
v -0.1 1.6 -0.5
v 0 0 0.2
v 0 0 0.1
v 0 0.1 0.3
v 0 0.1 0.2
v 0 0.1 0.1
v 0 0.1 5.96046e-08
v 0 0.2 0.4
v 0 0.2 0.3
v 0 0.2 5.96046e-08
v 0 0.2 -0.1
v 0 0.3 0.4
v 0 0.3 -0.1
v 0 0.4 -0.1
v 0 0.4 -0.2
v 0 0.7 -0.1
v 0 0.7 -0.2
v 0 0.8 0.5
v 0 0.8 0.4
v 0 1.1 0.5
v 0 1.1 0.4
v 0 1.3 0.4
v 0 1.3 0.2
v 0 1.3 -0.1
v 0 1.3 -0.2
v 0 1.4 0.2
v 0 1.4 -0.1
v 0 1.4 -0.2
v 0 1.4 -0.3
v 0 1.5 0.5
v 0 1.5 0.4
v 0 1.5 0.3
v 0 1.5 -0.2
v 0 1.5 -0.3
v 0 1.5 -0.4
v 0 1.6 0.5
v 0 1.6 0.3
v 0 1.6 -0.2
v 0 1.6 -0.4
v 0.1 1.2 0.4
v 0.1 1.2 0.2
v 0.1 1.3 0.4
v 0.1 1.3 0.2
v 0.1 1.5 0.6
v 0.1 1.5 0.5
v 0.1 1.6 0.6
v 0.1 1.6 0.5
v 0.3 1.4 5.96046e-08
v 0.3 1.4 -0.1
v 0.3 1.5 5.96046e-08
v 0.3 1.6 5.96046e-08
v 0.3 1.6 -0.1
v -0.3 1.5 0.1
v -0.3 1.5 5.96046e-08
v -0.3 1.6 0.1
v -0.3 1.6 5.96046e-08
v -0.1 1.4 0.1
v -0.1 1.4 5.96046e-08
v -0.1 1.5 0.1
v -0.1 1.5 5.96046e-08
v 0 1.2 0.4
v 0 1.2 0.2
v 0 1.3 0.4
v 0 1.3 0.2
v 0.1 0 0.2
v 0.1 0 0.1
v 0.1 0.1 0.2
v 0.1 0.1 0.1
v 0.1 0.2 0.4
v 0.1 0.2 0.3
v 0.1 0.3 0.4
v 0.1 0.3 0.3
v 0.1 0.3 0.2
v 0.1 0.3 0.1
v 0.1 1.3 -0.1
v 0.1 1.3 -0.2
v 0.1 1.4 0.4
v 0.1 1.4 0.1
v 0.1 1.4 5.96046e-08
v 0.1 1.4 -0.1
v 0.1 1.4 -0.2
v 0.1 1.4 -0.3
v 0.1 1.5 0.4
v 0.1 1.5 0.3
v 0.1 1.5 0.1
v 0.1 1.5 5.96046e-08
v 0.1 1.5 -0.2
v 0.1 1.5 -0.3
v 0.1 1.5 -0.5
v 0.1 1.6 0.4
v 0.1 1.6 0.3
v 0.1 1.6 -0.3
v 0.1 1.6 -0.5
v 0.2 0.1 0.3
v 0.2 0.1 0.2
v 0.2 0.1 0.1
v 0.2 0.1 5.96046e-08
v 0.2 0.2 5.96046e-08
v 0.2 0.2 -0.1
v 0.2 0.3 0.4
v 0.2 0.3 0.3
v 0.2 0.3 0.2
v 0.2 0.3 0.1
v 0.2 0.4 0.2
v 0.2 0.4 5.96046e-08
v 0.2 0.4 -0.1
v 0.2 0.4 -0.2
v 0.2 0.5 0.3
v 0.2 0.5 0.2
v 0.2 0.6 0.4
v 0.2 0.6 0.3
v 0.2 0.6 5.96046e-08
v 0.2 0.6 -0.1
v 0.2 0.8 0.5
v 0.2 0.8 0.4
v 0.2 0.8 -0.1
v 0.2 0.8 -0.2
v 0.2 1.1 0.5
v 0.2 1.1 0.4
v 0.2 1.2 5.96046e-08
v 0.2 1.2 -0.1
v 0.2 1.3 0.4
v 0.2 1.3 0.2
v 0.2 1.3 5.96046e-08
v 0.2 1.3 -0.1
v 0.2 1.4 0.4
v 0.2 1.4 0.2
v 0.2 1.5 0.6
v 0.2 1.5 0.4
v 0.2 1.5 -0.2
v 0.2 1.5 -0.3
v 0.2 1.6 0.6
v 0.2 1.6 0.4
v 0.2 1.6 -0.2
v 0.2 1.6 -0.3
v 0.3 0.4 0.2
v 0.3 0.4 5.96046e-08
v 0.3 0.5 0.3
v 0.3 0.5 0.2
v 0.3 0.6 0.4
v 0.3 0.6 0.3
v 0.3 0.6 5.96046e-08
v 0.3 0.6 -0.1
v 0.3 0.8 -0.1
v 0.3 0.8 -0.2
v 0.3 1.1 0.5
v 0.3 1.1 0.4
v 0.3 1.2 5.96046e-08
v 0.3 1.2 -0.1
v 0.3 1.3 0.5
v 0.3 1.3 0.2
v 0.3 1.3 5.96046e-08
v 0.3 1.3 -0.1
v 0.3 1.3 -0.2
v 0.3 1.4 0.2
v 0.3 1.4 0.1
v 0.3 1.4 5.96046e-08
v 0.3 1.4 -0.1
v 0.3 1.5 0.1
v 0.3 1.5 5.96046e-08
v 0.4 1.4 5.96046e-08
v 0.4 1.4 -0.1
v 0.4 1.5 5.96046e-08
v 0.4 1.5 -0.1
v 0.5 1.5 5.96046e-08
v 0.5 1.5 -0.1
v 0.5 1.6 5.96046e-08
v 0.5 1.6 -0.1
v 0.1 1.5 0.6
v 0.1 1.6 0.6
v 0.2 1.5 0.6
v 0.2 1.6 0.6
v -0.1 1.1 0.5
v -0.1 1.3 0.5
v 0 0.8 0.5
v 0 1.1 0.5
v 0 1.5 0.5
v 0 1.6 0.5
v 0.1 1.5 0.5
v 0.1 1.6 0.5
v 0.2 0.8 0.5
v 0.2 1.1 0.5
v 0.3 1.1 0.5
v 0.3 1.3 0.5
v -0.2 0.7 0.4
v -0.2 1.3 0.4
v -0.1 0.3 0.4
v -0.1 0.7 0.4
v -0.1 1.1 0.4
v -0.1 1.3 0.4
v 0 0.2 0.4
v 0 0.3 0.4
v 0 0.8 0.4
v 0 1.1 0.4
v 0 1.3 0.4
v 0 1.5 0.4
v 0.1 0.2 0.4
v 0.1 0.3 0.4
v 0.1 1.4 0.4
v 0.1 1.5 0.4
v 0.2 0.3 0.4
v 0.2 0.6 0.4
v 0.2 0.8 0.4
v 0.2 1.1 0.4
v 0.2 1.3 0.4
v 0.2 1.4 0.4
v 0.3 0.6 0.4
v 0.3 1.1 0.4
v -0.2 0.5 0.3
v -0.2 0.7 0.3
v -0.1 0.5 0.3
v -0.1 0.7 0.3
v 0 0.1 0.3
v 0 0.2 0.3
v 0.1 0.2 0.3
v 0.1 0.3 0.3
v 0.2 0.1 0.3
v 0.2 0.3 0.3
v 0.2 0.5 0.3
v 0.2 0.6 0.3
v 0.3 0.5 0.3
v 0.3 0.6 0.3
v -0.2 1.3 0.2
v -0.2 1.4 0.2
v 0 0 0.2
v 0 0.1 0.2
v 0 1.2 0.2
v 0 1.3 0.2
v 0 1.4 0.2
v 0.1 0 0.2
v 0.1 0.1 0.2
v 0.1 1.2 0.2
v 0.1 1.3 0.2
v 0.2 0.4 0.2
v 0.2 0.5 0.2
v 0.2 1.3 0.2
v 0.2 1.4 0.2
v 0.3 0.4 0.2
v 0.3 0.5 0.2
v 0.3 1.3 0.2
v 0.3 1.4 0.2
v -0.5 1.5 0.1
v -0.5 1.6 0.1
v -0.4 1.4 0.1
v -0.4 1.5 0.1
v -0.3 1.5 0.1
v -0.3 1.6 0.1
v -0.2 1.4 0.1
v -0.1 1.4 0.1
v -0.1 1.5 0.1
v 0.1 0.1 0.1
v 0.1 0.3 0.1
v 0.1 1.4 0.1
v 0.1 1.5 0.1
v 0.2 0.1 0.1
v 0.2 0.3 0.1
v 0.3 1.4 0.1
v 0.3 1.5 0.1
v 0.3 1.4 5.96046e-08
v 0.3 1.5 5.96046e-08
v 0.3 1.6 5.96046e-08
v 0.4 1.4 5.96046e-08
v 0.4 1.5 5.96046e-08
v 0.5 1.5 5.96046e-08
v 0.5 1.6 5.96046e-08
v 0.2 1.2 -0.1
v 0.2 1.3 -0.1
v 0.3 1.2 -0.1
v 0.3 1.3 -0.1
v 0 1.5 -0.2
v 0 1.6 -0.2
v 0.1 1.5 -0.2
v 0.2 1.5 -0.2
v 0.2 1.6 -0.2
v -0.1 1.5 -0.4
v -0.1 1.6 -0.4
v 0 1.5 -0.4
v 0 1.6 -0.4
v 0 1.2 0.4
v 0 1.3 0.4
v 0.1 1.2 0.4
v 0.1 1.3 0.4
v 0.1 1.5 0.4
v 0.1 1.6 0.4
v 0.2 1.5 0.4
v 0.2 1.6 0.4
v 0 1.5 0.3
v 0 1.6 0.3
v 0.1 1.5 0.3
v 0.1 1.6 0.3
v 0.1 0.1 0.2
v 0.1 0.3 0.2
v 0.2 0.1 0.2
v 0.2 0.3 0.2
v 0 0 0.1
v 0 0.1 0.1
v 0.1 0 0.1
v 0.1 0.1 0.1
v -0.5 1.5 5.96046e-08
v -0.5 1.6 5.96046e-08
v -0.4 1.4 5.96046e-08
v -0.4 1.5 5.96046e-08
v -0.3 1.5 5.96046e-08
v -0.3 1.6 5.96046e-08
v -0.2 1.4 5.96046e-08
v -0.1 1.4 5.96046e-08
v -0.1 1.5 5.96046e-08
v 0 0.1 5.96046e-08
v 0 0.2 5.96046e-08
v 0.1 1.4 5.96046e-08
v 0.1 1.5 5.96046e-08
v 0.2 0.1 5.96046e-08
v 0.2 0.2 5.96046e-08
v 0.2 0.4 5.96046e-08
v 0.2 0.6 5.96046e-08
v 0.2 1.2 5.96046e-08
v 0.2 1.3 5.96046e-08
v 0.3 0.4 5.96046e-08
v 0.3 0.6 5.96046e-08
v 0.3 1.2 5.96046e-08
v 0.3 1.3 5.96046e-08
v 0.3 1.4 5.96046e-08
v 0.3 1.5 5.96046e-08
v -0.2 0.5 -0.1
v -0.2 0.9 -0.1
v -0.2 1.3 -0.1
v -0.2 1.4 -0.1
v -0.1 0.3 -0.1
v -0.1 0.5 -0.1
v -0.1 0.7 -0.1
v -0.1 0.9 -0.1
v 0 0.2 -0.1
v 0 0.3 -0.1
v 0 0.4 -0.1
v 0 0.7 -0.1
v 0 1.3 -0.1
v 0 1.4 -0.1
v 0.1 1.3 -0.1
v 0.1 1.4 -0.1
v 0.2 0.2 -0.1
v 0.2 0.4 -0.1
v 0.2 0.6 -0.1
v 0.2 0.8 -0.1
v 0.3 0.6 -0.1
v 0.3 0.8 -0.1
v 0.3 1.3 -0.1
v 0.3 1.4 -0.1
v 0.3 1.6 -0.1
v 0.4 1.4 -0.1
v 0.4 1.5 -0.1
v 0.5 1.5 -0.1
v 0.5 1.6 -0.1
v -0.2 0.9 -0.2
v -0.2 1.3 -0.2
v -0.1 0.7 -0.2
v -0.1 0.9 -0.2
v 0 0.4 -0.2
v 0 0.7 -0.2
v 0 1.3 -0.2
v 0 1.4 -0.2
v 0.1 1.3 -0.2
v 0.1 1.4 -0.2
v 0.2 0.4 -0.2
v 0.2 0.8 -0.2
v 0.3 0.8 -0.2
v 0.3 1.3 -0.2
v 0 1.4 -0.3
v 0 1.5 -0.3
v 0.1 1.4 -0.3
v 0.1 1.5 -0.3
v 0.1 1.6 -0.3
v 0.2 1.5 -0.3
v 0.2 1.6 -0.3
v -0.1 1.5 -0.5
v -0.1 1.6 -0.5
v 0.1 1.5 -0.5
v 0.1 1.6 -0.5
v 0 0 0.2
v 0.1 0 0.2
v 0 0 0.1
v 0.1 0 0.1
v 0 0.1 0.3
v 0.2 0.1 0.3
v 0 0.1 0.2
v 0.1 0.1 0.2
v 0.2 0.1 0.2
v 0 0.1 0.1
v 0.1 0.1 0.1
v 0.2 0.1 0.1
v 0 0.1 5.96046e-08
v 0.2 0.1 5.96046e-08
v 0 0.2 0.4
v 0.1 0.2 0.4
v 0 0.2 0.3
v 0.1 0.2 0.3
v 0 0.2 5.96046e-08
v 0.2 0.2 5.96046e-08
v 0 0.2 -0.1
v 0.2 0.2 -0.1
v -0.1 0.3 0.4
v 0 0.3 0.4
v 0.1 0.3 0.4
v 0.2 0.3 0.4
v 0.1 0.3 0.3
v 0.2 0.3 0.3
v 0.1 0.3 0.2
v 0.2 0.3 0.2
v 0.1 0.3 0.1
v 0.2 0.3 0.1
v -0.1 0.3 -0.1
v 0 0.3 -0.1
v 0.2 0.4 0.2
v 0.3 0.4 0.2
v 0.2 0.4 5.96046e-08
v 0.3 0.4 5.96046e-08
v 0 0.4 -0.1
v 0.2 0.4 -0.1
v 0 0.4 -0.2
v 0.2 0.4 -0.2
v -0.2 0.5 0.3
v -0.1 0.5 0.3
v 0.2 0.5 0.3
v 0.3 0.5 0.3
v 0.2 0.5 0.2
v 0.3 0.5 0.2
v -0.2 0.5 -0.1
v -0.1 0.5 -0.1
v 0.2 0.6 0.4
v 0.3 0.6 0.4
v 0.2 0.6 0.3
v 0.3 0.6 0.3
v 0.2 0.6 5.96046e-08
v 0.3 0.6 5.96046e-08
v 0.2 0.6 -0.1
v 0.3 0.6 -0.1
v -0.2 0.7 0.4
v -0.1 0.7 0.4
v -0.2 0.7 0.3
v -0.1 0.7 0.3
v -0.1 0.7 -0.1
v 0 0.7 -0.1
v -0.1 0.7 -0.2
v 0 0.7 -0.2
v 0 0.8 0.5
v 0.2 0.8 0.5
v 0 0.8 0.4
v 0.2 0.8 0.4
v 0.2 0.8 -0.1
v 0.3 0.8 -0.1
v 0.2 0.8 -0.2
v 0.3 0.8 -0.2
v -0.2 0.9 -0.1
v -0.1 0.9 -0.1
v -0.2 0.9 -0.2
v -0.1 0.9 -0.2
v -0.1 1.1 0.5
v 0 1.1 0.5
v 0.2 1.1 0.5
v 0.3 1.1 0.5
v -0.1 1.1 0.4
v 0 1.1 0.4
v 0.2 1.1 0.4
v 0.3 1.1 0.4
v 0 1.3 0.4
v 0.1 1.3 0.4
v 0 1.3 0.2
v 0.1 1.3 0.2
v 0.2 1.3 5.96046e-08
v 0.3 1.3 5.96046e-08
v 0.2 1.3 -0.1
v 0.3 1.3 -0.1
v -0.4 1.4 0.1
v -0.2 1.4 0.1
v -0.4 1.4 5.96046e-08
v -0.2 1.4 5.96046e-08
v 0.3 1.4 5.96046e-08
v 0.4 1.4 5.96046e-08
v 0.3 1.4 -0.1
v 0.4 1.4 -0.1
v 0 1.4 -0.2
v 0.1 1.4 -0.2
v 0 1.4 -0.3
v 0.1 1.4 -0.3
v 0.1 1.5 0.6
v 0.2 1.5 0.6
v 0 1.5 0.5
v 0.1 1.5 0.5
v 0 1.5 0.4
v 0.1 1.5 0.4
v 0.2 1.5 0.4
v -0.5 1.5 0.1
v -0.4 1.5 0.1
v -0.5 1.5 5.96046e-08
v -0.4 1.5 5.96046e-08
v 0.4 1.5 5.96046e-08
v 0.5 1.5 5.96046e-08
v 0.4 1.5 -0.1
v 0.5 1.5 -0.1
v 0.1 1.5 -0.2
v 0.2 1.5 -0.2
v 0 1.5 -0.3
v 0.1 1.5 -0.3
v 0.2 1.5 -0.3
v -0.1 1.5 -0.4
v 0 1.5 -0.4
v -0.1 1.5 -0.5
v 0.1 1.5 -0.5
v 0 1.2 0.4
v 0.1 1.2 0.4
v 0 1.2 0.2
v 0.1 1.2 0.2
v 0.2 1.2 5.96046e-08
v 0.3 1.2 5.96046e-08
v 0.2 1.2 -0.1
v 0.3 1.2 -0.1
v -0.1 1.3 0.5
v 0.3 1.3 0.5
v -0.2 1.3 0.4
v -0.1 1.3 0.4
v 0 1.3 0.4
v 0.2 1.3 0.4
v -0.2 1.3 0.2
v 0 1.3 0.2
v 0.2 1.3 0.2
v 0.3 1.3 0.2
v -0.2 1.3 -0.1
v 0 1.3 -0.1
v 0.1 1.3 -0.1
v 0.3 1.3 -0.1
v -0.2 1.3 -0.2
v 0 1.3 -0.2
v 0.1 1.3 -0.2
v 0.3 1.3 -0.2
v 0.1 1.4 0.4
v 0.2 1.4 0.4
v -0.2 1.4 0.2
v 0 1.4 0.2
v 0.2 1.4 0.2
v 0.3 1.4 0.2
v -0.2 1.4 0.1
v -0.1 1.4 0.1
v 0.1 1.4 0.1
v 0.3 1.4 0.1
v -0.2 1.4 5.96046e-08
v -0.1 1.4 5.96046e-08
v 0.1 1.4 5.96046e-08
v 0.3 1.4 5.96046e-08
v -0.2 1.4 -0.1
v 0 1.4 -0.1
v 0.1 1.4 -0.1
v 0.3 1.4 -0.1
v 0 1.5 0.3
v 0.1 1.5 0.3
v -0.3 1.5 0.1
v -0.1 1.5 0.1
v 0.1 1.5 0.1
v 0.3 1.5 0.1
v -0.3 1.5 5.96046e-08
v -0.1 1.5 5.96046e-08
v 0.1 1.5 5.96046e-08
v 0.3 1.5 5.96046e-08
v 0 1.5 -0.2
v 0.1 1.5 -0.2
v 0.1 1.6 0.6
v 0.2 1.6 0.6
v 0 1.6 0.5
v 0.1 1.6 0.5
v 0.1 1.6 0.4
v 0.2 1.6 0.4
v 0 1.6 0.3
v 0.1 1.6 0.3
v -0.5 1.6 0.1
v -0.3 1.6 0.1
v -0.5 1.6 5.96046e-08
v -0.3 1.6 5.96046e-08
v 0.3 1.6 5.96046e-08
v 0.5 1.6 5.96046e-08
v 0.3 1.6 -0.1
v 0.5 1.6 -0.1
v 0 1.6 -0.2
v 0.2 1.6 -0.2
v 0.1 1.6 -0.3
v 0.2 1.6 -0.3
v -0.1 1.6 -0.4
v 0 1.6 -0.4
v -0.1 1.6 -0.5
v 0.1 1.6 -0.5

# faces
f 3/1/1 2/1/1 1/1/1
f 4/1/1 2/1/1 3/1/1
f 7/1/1 6/1/1 5/1/1
f 8/1/1 6/1/1 7/1/1
f 12/2/1 10/2/1 9/2/1
f 13/2/1 10/2/1 12/2/1
f 13/2/1 12/2/1 11/2/1
f 15/2/1 13/2/1 11/2/1
f 15/2/1 14/2/1 13/2/1
f 16/2/1 14/2/1 15/2/1
f 17/2/1 14/2/1 16/2/1
f 18/2/1 14/2/1 17/2/1
f 19/1/1 17/1/1 16/1/1
f 20/1/1 17/1/1 19/1/1
f 21/1/1 17/1/1 20/1/1
f 22/1/1 17/1/1 21/1/1
f 25/2/1 24/2/1 23/2/1
f 26/2/1 24/2/1 25/2/1
f 27/2/1 25/2/1 23/2/1
f 28/2/1 25/2/1 27/2/1
f 31/2/1 30/2/1 29/2/1
f 32/2/1 30/2/1 31/2/1
f 35/2/1 34/2/1 33/2/1
f 36/2/1 34/2/1 35/2/1
f 39/1/1 38/1/1 37/1/1
f 40/1/1 38/1/1 39/1/1
f 44/2/1 42/2/1 41/2/1
f 45/2/1 42/2/1 44/2/1
f 48/2/1 44/2/1 43/2/1
f 48/2/1 46/2/1 45/2/1
f 48/2/1 45/2/1 44/2/1
f 49/2/1 46/2/1 48/2/1
f 51/2/1 48/2/1 47/2/1
f 51/2/1 50/2/1 49/2/1
f 51/2/1 49/2/1 48/2/1
f 52/2/1 50/2/1 51/2/1
f 55/2/1 54/2/1 53/2/1
f 56/2/1 54/2/1 55/2/1
f 59/2/1 58/2/1 57/2/1
f 60/2/1 58/2/1 59/2/1
f 65/1/1 62/1/1 61/1/1
f 66/1/1 64/1/1 63/1/1
f 67/1/1 64/1/1 66/1/1
f 70/1/1 67/1/1 66/1/1
f 70/1/1 68/1/1 67/1/1
f 70/1/1 66/1/1 65/1/1
f 70/1/1 65/1/1 61/1/1
f 71/1/1 68/1/1 70/1/1
f 72/1/1 68/1/1 71/1/1
f 73/1/1 68/1/1 72/1/1
f 75/1/1 70/1/1 69/1/1
f 75/1/1 71/1/1 70/1/1
f 76/1/1 71/1/1 75/1/1
f 77/1/1 74/1/1 73/1/1
f 77/1/1 73/1/1 72/1/1
f 78/1/1 74/1/1 77/1/1
f 81/2/1 80/2/1 79/2/1
f 82/2/1 80/2/1 81/2/1
f 85/1/1 84/1/1 83/1/1
f 86/1/1 84/1/1 85/1/1
f 89/1/1 88/1/1 87/1/1
f 90/1/1 88/1/1 89/1/1
f 91/1/1 88/1/1 90/1/1
f 92/1/2 93/1/2 94/1/2
f 94/1/2 93/1/2 95/1/2
f 96/1/2 97/1/2 98/1/2
f 98/1/2 97/1/2 99/1/2
f 100/2/2 101/2/2 102/2/2
f 102/2/2 101/2/2 103/2/2
f 104/2/2 105/2/2 106/2/2
f 106/2/2 105/2/2 107/2/2
f 108/2/2 109/2/2 110/2/2
f 110/2/2 109/2/2 111/2/2
f 106/2/2 107/2/2 112/2/2
f 112/2/2 107/2/2 113/2/2
f 114/1/2 115/1/2 119/1/2
f 119/1/2 115/1/2 120/1/2
f 116/1/2 117/1/2 122/1/2
f 122/1/2 117/1/2 123/1/2
f 123/1/2 117/1/2 124/1/2
f 120/1/2 121/1/2 125/1/2
f 118/1/2 119/1/2 125/1/2
f 119/1/2 120/1/2 125/1/2
f 125/1/2 121/1/2 126/1/2
f 126/1/2 121/1/2 127/1/2
f 122/1/2 123/1/2 129/1/2
f 129/1/2 123/1/2 130/1/2
f 127/1/2 128/1/2 131/1/2
f 131/1/2 128/1/2 132/1/2
f 135/2/2 136/2/2 137/2/2
f 133/2/2 134/2/2 140/2/2
f 140/2/2 134/2/2 141/2/2
f 137/2/2 138/2/2 142/2/2
f 135/2/2 137/2/2 142/2/2
f 140/2/2 141/2/2 143/2/2
f 141/2/2 142/2/2 143/2/2
f 139/2/2 140/2/2 143/2/2
f 142/2/2 138/2/2 144/2/2
f 143/2/2 142/2/2 144/2/2
f 144/2/2 138/2/2 145/2/2
f 139/2/2 143/2/2 147/2/2
f 147/2/2 143/2/2 148/2/2
f 139/2/2 147/2/2 149/2/2
f 149/2/2 147/2/2 150/2/2
f 145/2/2 146/2/2 151/2/2
f 144/2/2 145/2/2 151/2/2
f 151/2/2 146/2/2 152/2/2
f 152/2/2 146/2/2 155/2/2
f 155/2/2 146/2/2 156/2/2
f 153/2/2 154/2/2 157/2/2
f 157/2/2 154/2/2 158/2/2
f 159/2/2 160/2/2 163/2/2
f 163/2/2 160/2/2 164/2/2
f 161/1/2 162/1/2 165/1/2
f 165/1/2 162/1/2 166/1/2
f 167/1/2 168/1/2 171/1/2
f 171/1/2 168/1/2 172/1/2
f 169/1/2 170/1/2 173/1/2
f 173/1/2 170/1/2 174/1/2
f 175/2/2 176/2/2 178/2/2
f 177/2/2 178/2/2 180/2/2
f 178/2/2 176/2/2 181/2/2
f 180/2/2 178/2/2 181/2/2
f 179/2/2 180/2/2 183/2/2
f 181/2/2 182/2/2 183/2/2
f 180/2/2 181/2/2 183/2/2
f 179/2/2 183/2/2 186/2/2
f 183/2/2 184/2/2 186/2/2
f 186/2/2 184/2/2 187/2/2
f 185/2/2 186/2/2 187/2/2
f 187/2/2 184/2/2 188/2/2
f 185/2/2 187/2/2 189/2/2
f 189/2/2 187/2/2 190/2/2
f 190/2/2 187/2/2 191/2/2
f 188/2/2 184/2/2 192/2/2
f 192/2/2 184/2/2 193/2/2
f 190/1/2 191/1/2 194/1/2
f 191/1/2 192/1/2 194/1/2
f 194/1/2 192/1/2 195/1/2
f 195/1/2 192/1/2 196/1/2
f 196/1/2 192/1/2 197/1/2
f 195/1/2 196/1/2 198/1/2
f 198/1/2 196/1/2 199/1/2
f 200/1/2 201/1/2 202/1/2
f 202/1/2 201/1/2 203/1/2
f 204/1/2 205/1/2 206/1/2
f 206/1/2 205/1/2 207/1/2
f 210/1/3 209/1/3 208/1/3
f 211/1/3 209/1/3 210/1/3
f 215/2/3 213/2/3 212/2/3
f 218/1/3 217/1/3 216/1/3
f 219/1/3 217/1/3 218/1/3
f 220/2/3 215/2/3 214/2/3
f 221/2/3 213/2/3 215/2/3
f 221/2/3 215/2/3 220/2/3
f 222/2/3 213/2/3 221/2/3
f 223/2/3 213/2/3 222/2/3
f 227/2/3 225/2/3 224/2/3
f 228/2/3 225/2/3 227/2/3
f 229/2/3 225/2/3 228/2/3
f 231/2/3 227/2/3 226/2/3
f 231/2/3 228/2/3 227/2/3
f 232/2/3 228/2/3 231/2/3
f 233/2/3 228/2/3 232/2/3
f 236/2/3 231/2/3 230/2/3
f 236/2/3 232/2/3 231/2/3
f 237/2/3 232/2/3 236/2/3
f 238/1/3 235/1/3 234/1/3
f 239/1/3 235/1/3 238/1/3
f 240/2/3 232/2/3 237/2/3
f 241/2/3 232/2/3 240/2/3
f 242/2/3 232/2/3 241/2/3
f 244/1/3 238/1/3 234/1/3
f 245/1/3 238/1/3 244/1/3
f 246/2/3 243/2/3 242/2/3
f 246/2/3 242/2/3 241/2/3
f 247/2/3 243/2/3 246/2/3
f 250/2/3 249/2/3 248/2/3
f 251/2/3 249/2/3 250/2/3
f 254/2/3 253/2/3 252/2/3
f 256/2/3 254/2/3 252/2/3
f 256/2/3 255/2/3 254/2/3
f 257/2/3 255/2/3 256/2/3
f 260/2/3 259/2/3 258/2/3
f 261/2/3 259/2/3 260/2/3
f 267/1/3 263/1/3 262/1/3
f 268/1/3 263/1/3 267/1/3
f 269/2/3 265/2/3 264/2/3
f 270/2/3 265/2/3 269/2/3
f 271/2/3 267/2/3 266/2/3
f 272/2/3 267/2/3 271/2/3
f 277/2/3 274/2/3 273/2/3
f 278/2/3 274/2/3 277/2/3
f 279/1/3 276/1/3 275/1/3
f 280/1/3 276/1/3 279/1/3
f 284/1/3 282/1/3 281/1/3
f 285/1/3 282/1/3 284/1/3
f 285/1/3 284/1/3 283/1/3
f 286/1/3 282/1/3 285/1/3
f 287/1/3 285/1/3 283/1/3
f 288/1/3 285/1/3 287/1/3
f 289/1/3 285/1/3 288/1/3
f 294/2/3 291/2/3 290/2/3
f 295/2/3 291/2/3 294/2/3
f 296/1/3 293/1/3 292/1/3
f 297/1/3 293/1/3 296/1/3
f 301/1/3 299/1/3 298/1/3
f 301/1/3 300/1/3 299/1/3
f 302/1/3 300/1/3 301/1/3
f 303/1/3 300/1/3 302/1/3
f 304/1/3 300/1/3 303/1/3
f 307/2/3 306/2/3 305/2/3
f 308/2/3 306/2/3 307/2/3
f 311/1/3 310/1/3 309/1/3
f 312/1/3 310/1/3 311/1/3
f 313/1/3 310/1/3 312/1/3
f 316/1/3 315/1/3 314/1/3
f 317/1/3 315/1/3 316/1/3
f 318/2/4 319/2/4 320/2/4
f 320/2/4 319/2/4 321/2/4
f 322/1/4 323/1/4 324/1/4
f 324/1/4 323/1/4 325/1/4
f 326/1/4 327/1/4 328/1/4
f 328/1/4 327/1/4 329/1/4
f 330/2/4 331/2/4 332/2/4
f 332/2/4 331/2/4 333/2/4
f 334/2/4 335/2/4 336/2/4
f 336/2/4 335/2/4 337/2/4
f 338/1/4 339/1/4 341/1/4
f 341/1/4 339/1/4 342/1/4
f 340/1/4 341/1/4 342/1/4
f 342/1/4 339/1/4 343/1/4
f 340/1/4 342/1/4 344/1/4
f 344/1/4 342/1/4 345/1/4
f 345/1/4 342/1/4 346/1/4
f 347/2/4 348/2/4 351/2/4
f 351/2/4 348/2/4 352/2/4
f 353/2/4 354/2/4 357/2/4
f 357/2/4 354/2/4 358/2/4
f 355/2/4 356/2/4 359/2/4
f 359/2/4 356/2/4 360/2/4
f 349/1/4 350/1/4 361/1/4
f 361/1/4 350/1/4 362/1/4
f 363/2/4 364/2/4 368/2/4
f 368/2/4 364/2/4 369/2/4
f 369/2/4 364/2/4 370/2/4
f 367/2/4 368/2/4 372/2/4
f 368/2/4 369/2/4 372/2/4
f 372/2/4 369/2/4 373/2/4
f 373/2/4 369/2/4 374/2/4
f 365/1/4 366/1/4 375/1/4
f 375/1/4 366/1/4 376/1/4
f 372/2/4 373/2/4 379/2/4
f 371/2/4 372/2/4 379/2/4
f 379/2/4 373/2/4 380/2/4
f 381/2/4 382/2/4 383/2/4
f 383/2/4 382/2/4 384/2/4
f 377/1/4 378/1/4 385/1/4
f 385/1/4 378/1/4 386/1/4
f 386/1/4 387/1/4 388/1/4
f 388/1/4 387/1/4 389/1/4
f 389/1/4 387/1/4 390/1/4
f 390/1/4 387/1/4 391/1/4
f 392/2/4 393/2/4 395/2/4
f 394/2/4 395/2/4 397/2/4
f 395/2/4 393/2/4 398/2/4
f 397/2/4 395/2/4 398/2/4
f 396/2/4 397/2/4 400/2/4
f 398/1/4 399/1/4 400/1/4
f 397/2/4 398/2/4 400/2/4
f 400/1/4 399/1/4 401/1/4
f 396/2/4 400/2/4 402/2/4
f 402/2/4 400/2/4 403/2/4
f 403/2/4 400/2/4 404/2/4
f 404/2/4 400/2/4 405/2/4
f 406/1/4 407/1/4 408/1/4
f 408/1/4 407/1/4 409/1/4
f 409/1/4 410/1/4 411/1/4
f 411/1/4 410/1/4 412/1/4
f 413/1/4 414/1/4 415/1/4
f 415/1/4 414/1/4 416/1/4
f 419/2/5 418/2/5 417/2/5
f 420/2/5 418/2/5 419/2/5
f 423/2/5 422/2/5 421/2/5
f 424/2/5 422/2/5 423/2/5
f 425/2/5 422/2/5 424/2/5
f 429/2/5 427/2/5 426/2/5
f 429/2/5 428/2/5 427/2/5
f 430/2/5 428/2/5 429/2/5
f 433/2/5 432/2/5 431/2/5
f 434/2/5 432/2/5 433/2/5
f 437/2/5 436/2/5 435/2/5
f 438/2/5 436/2/5 437/2/5
f 443/2/5 442/2/5 441/2/5
f 444/2/5 442/2/5 443/2/5
f 447/2/5 446/2/5 445/2/5
f 448/2/5 446/2/5 447/2/5
f 449/2/5 440/2/5 439/2/5
f 450/2/5 440/2/5 449/2/5
f 453/2/5 452/2/5 451/2/5
f 454/2/5 452/2/5 453/2/5
f 457/2/5 456/2/5 455/2/5
f 458/2/5 456/2/5 457/2/5
f 463/2/5 462/2/5 461/2/5
f 464/2/5 462/2/5 463/2/5
f 465/2/5 460/2/5 459/2/5
f 466/2/5 460/2/5 465/2/5
f 469/2/5 468/2/5 467/2/5
f 470/2/5 468/2/5 469/2/5
f 473/2/5 472/2/5 471/2/5
f 474/2/5 472/2/5 473/2/5
f 477/2/5 476/2/5 475/2/5
f 478/2/5 476/2/5 477/2/5
f 481/2/5 480/2/5 479/2/5
f 482/2/5 480/2/5 481/2/5
f 485/2/5 484/2/5 483/2/5
f 486/2/5 484/2/5 485/2/5
f 489/2/5 488/2/5 487/2/5
f 490/2/5 488/2/5 489/2/5
f 493/2/5 492/2/5 491/2/5
f 494/2/5 492/2/5 493/2/5
f 499/2/5 496/2/5 495/2/5
f 500/2/5 496/2/5 499/2/5
f 501/2/5 498/2/5 497/2/5
f 502/2/5 498/2/5 501/2/5
f 505/1/5 504/1/5 503/1/5
f 506/1/5 504/1/5 505/1/5
f 509/1/5 508/1/5 507/1/5
f 510/1/5 508/1/5 509/1/5
f 513/1/5 512/1/5 511/1/5
f 514/1/5 512/1/5 513/1/5
f 517/1/5 516/1/5 515/1/5
f 518/1/5 516/1/5 517/1/5
f 521/1/5 520/1/5 519/1/5
f 522/1/5 520/1/5 521/1/5
f 526/1/5 524/1/5 523/1/5
f 527/1/5 526/1/5 525/1/5
f 528/1/5 524/1/5 526/1/5
f 528/1/5 526/1/5 527/1/5
f 529/1/5 524/1/5 528/1/5
f 532/1/5 531/1/5 530/1/5
f 533/1/5 531/1/5 532/1/5
f 536/1/5 535/1/5 534/1/5
f 537/1/5 535/1/5 536/1/5
f 541/1/5 539/1/5 538/1/5
f 542/1/5 539/1/5 541/1/5
f 544/1/5 541/1/5 540/1/5
f 545/1/5 544/1/5 543/1/5
f 546/1/5 541/1/5 544/1/5
f 546/1/5 544/1/5 545/1/5
f 547/2/6 548/2/6 549/2/6
f 549/2/6 548/2/6 550/2/6
f 551/2/6 552/2/6 553/2/6
f 553/2/6 552/2/6 554/2/6
f 555/2/6 556/2/6 558/2/6
f 558/2/6 556/2/6 559/2/6
f 559/2/6 556/2/6 560/2/6
f 557/2/6 558/2/6 561/2/6
f 558/2/6 559/2/6 561/2/6
f 561/2/6 559/2/6 562/2/6
f 560/2/6 556/2/6 563/2/6
f 563/2/6 556/2/6 564/2/6
f 565/2/6 566/2/6 569/2/6
f 569/2/6 566/2/6 570/2/6
f 567/2/6 568/2/6 571/2/6
f 571/2/6 568/2/6 572/2/6
f 573/1/6 574/1/6 577/1/6
f 575/1/6 576/1/6 579/1/6
f 579/1/6 576/1/6 580/1/6
f 577/1/6 578/1/6 581/1/6
f 573/1/6 577/1/6 581/1/6
f 581/1/6 578/1/6 582/1/6
f 580/1/6 576/1/6 584/1/6
f 583/1/6 584/1/6 587/1/6
f 584/1/6 576/1/6 588/1/6
f 587/1/6 584/1/6 588/1/6
f 585/1/6 586/1/6 589/1/6
f 589/1/6 586/1/6 590/1/6
f 591/1/6 592/1/6 595/1/6
f 593/1/6 594/1/6 597/1/6
f 597/1/6 594/1/6 598/1/6
f 595/1/6 596/1/6 599/1/6
f 591/1/6 595/1/6 599/1/6
f 599/1/6 596/1/6 600/1/6
f 591/1/6 599/1/6 601/1/6
f 601/1/6 599/1/6 602/1/6
f 603/1/6 604/1/6 606/1/6
f 606/1/6 604/1/6 607/1/6
f 605/1/6 606/1/6 607/1/6
f 607/1/6 604/1/6 608/1/6
f 605/1/6 607/1/6 609/1/6
f 609/1/6 607/1/6 610/1/6
f 611/1/6 612/1/6 613/1/6
f 613/1/6 612/1/6 614/1/6
f 615/1/6 616/1/6 617/1/6
f 617/1/6 616/1/6 618/1/6
f 619/1/6 620/1/6 621/1/6
f 621/1/6 620/1/6 622/1/6
f 619/1/6 621/1/6 624/1/6
f 623/1/6 624/1/6 625/1/6
f 624/1/6 621/1/6 626/1/6
f 625/1/6 624/1/6 626/1/6
